<mxfile host="65bd71144e">
    <diagram id="DFD_Level_2_Process_2" name="Level 2 DFD Process 2.0 (Order Management)">
        <mxGraphModel dx="1109" dy="623" grid="1" gridSize="10" guides="1" tooltips="1" connect="1" arrows="1" fold="1" page="1" pageScale="1" pageWidth="827" pageHeight="1169" math="0" shadow="0">
            <root>
                <mxCell id="0"/>
                <mxCell id="1" parent="0"/>
                <mxCell id="title" value="Level 2 DFD Process 2.0 (Order Management):" style="text;html=1;strokeColor=none;fillColor=none;align=left;verticalAlign=middle;whiteSpace=wrap;rounded=0;fontSize=16;fontStyle=1;" parent="1" vertex="1">
                    <mxGeometry x="200" y="20" width="400" height="30" as="geometry"/>
                </mxCell>
                <mxCell id="admin" value="Admin" style="rounded=0;whiteSpace=wrap;html=1;strokeColor=#000000;fillColor=#ffffff;fontSize=12;fontStyle=1;" parent="1" vertex="1">
                    <mxGeometry x="50" y="150" width="80" height="40" as="geometry"/>
                </mxCell>
                <mxCell id="process21" value="2.1&#xa;&#xa;Create&#xa;Order" style="rounded=1;whiteSpace=wrap;html=1;strokeColor=#000000;fillColor=#ffffff;fontSize=12;fontStyle=1;align=center;" parent="1" vertex="1">
                    <mxGeometry x="200" y="100" width="100" height="80" as="geometry"/>
                </mxCell>
                <mxCell id="process22" value="2.2&#xa;&#xa;View&#xa;Orders" style="rounded=1;whiteSpace=wrap;html=1;strokeColor=#000000;fillColor=#ffffff;fontSize=12;fontStyle=1;align=center;" parent="1" vertex="1">
                    <mxGeometry x="400" y="100" width="100" height="80" as="geometry"/>
                </mxCell>
                <mxCell id="process23" value="2.3&#xa;&#xa;Update Order&#xa;Status" style="rounded=1;whiteSpace=wrap;html=1;strokeColor=#000000;fillColor=#ffffff;fontSize=12;fontStyle=1;align=center;" parent="1" vertex="1">
                    <mxGeometry x="200" y="250" width="100" height="80" as="geometry"/>
                </mxCell>
                <mxCell id="process24" value="2.4&#xa;&#xa;Cancel&#xa;Order" style="rounded=1;whiteSpace=wrap;html=1;strokeColor=#000000;fillColor=#ffffff;fontSize=12;fontStyle=1;align=center;" parent="1" vertex="1">
                    <mxGeometry x="400" y="250" width="100" height="80" as="geometry"/>
                </mxCell>
                <mxCell id="db1" value="DB" style="rounded=0;whiteSpace=wrap;html=1;strokeColor=#000000;fillColor=#ffffff;fontSize=10;fontStyle=1;" parent="1" vertex="1">
                    <mxGeometry x="670" y="590" width="30" height="40" as="geometry"/>
                </mxCell>
                <mxCell id="admin_to_create" value="" style="endArrow=classic;html=1;rounded=0;exitX=1;exitY=0.25;exitDx=0;exitDy=0;entryX=0;entryY=0.75;entryDx=0;entryDy=0;" parent="1" source="admin" target="process21" edge="1">
                    <mxGeometry width="50" height="50" relative="1" as="geometry">
                        <mxPoint x="390" y="400" as="sourcePoint"/>
                        <mxPoint x="440" y="350" as="targetPoint"/>
                    </mxGeometry>
                </mxCell>
                <mxCell id="admin_to_create_label" value="&lt;font style=&quot;font-size: 12px;&quot;&gt;Order Details&lt;/font&gt;" style="text;html=1;strokeColor=none;fillColor=none;align=center;verticalAlign=middle;whiteSpace=wrap;rounded=0;fontSize=9;" parent="1" vertex="1">
                    <mxGeometry x="120" y="120" width="80" height="20" as="geometry"/>
                </mxCell>
                <mxCell id="admin_to_view" value="" style="endArrow=classic;html=1;rounded=0;exitX=1;exitY=1;exitDx=0;exitDy=0;" parent="1" source="admin" edge="1">
                    <mxGeometry width="50" height="50" relative="1" as="geometry">
                        <mxPoint x="390" y="400" as="sourcePoint"/>
                        <mxPoint x="420" y="180" as="targetPoint"/>
                        <Array as="points">
                            <mxPoint x="420" y="190"/>
                        </Array>
                    </mxGeometry>
                </mxCell>
                <mxCell id="admin_to_update" value="" style="endArrow=classic;html=1;rounded=0;exitX=0.5;exitY=1;exitDx=0;exitDy=0;entryX=0;entryY=0.5;entryDx=0;entryDy=0;" parent="1" source="admin" target="process23" edge="1">
                    <mxGeometry width="50" height="50" relative="1" as="geometry">
                        <mxPoint x="390" y="400" as="sourcePoint"/>
                        <mxPoint x="440" y="350" as="targetPoint"/>
                        <Array as="points">
                            <mxPoint x="90" y="290"/>
                        </Array>
                    </mxGeometry>
                </mxCell>
                <mxCell id="admin_to_update_label" value="&lt;font style=&quot;font-size: 12px;&quot;&gt;Edit Order&lt;/font&gt;" style="text;html=1;strokeColor=none;fillColor=none;align=center;verticalAlign=middle;whiteSpace=wrap;rounded=0;fontSize=9;" parent="1" vertex="1">
                    <mxGeometry x="80" y="300" width="80" height="20" as="geometry"/>
                </mxCell>
                <mxCell id="admin_to_cancel" value="" style="endArrow=classic;html=1;rounded=0;exitX=0.652;exitY=0.966;exitDx=0;exitDy=0;exitPerimeter=0;" parent="1" source="admin" target="process24" edge="1">
                    <mxGeometry width="50" height="50" relative="1" as="geometry">
                        <mxPoint x="390" y="400" as="sourcePoint"/>
                        <mxPoint x="440" y="350" as="targetPoint"/>
                        <Array as="points">
                            <mxPoint x="102" y="220"/>
                            <mxPoint x="450" y="220"/>
                        </Array>
                    </mxGeometry>
                </mxCell>
                <mxCell id="admin_to_cancel_label" value="&lt;font style=&quot;font-size: 12px;&quot;&gt;Order ID&lt;/font&gt;" style="text;html=1;strokeColor=none;fillColor=none;align=center;verticalAlign=middle;whiteSpace=wrap;rounded=0;fontSize=9;" parent="1" vertex="1">
                    <mxGeometry x="310" y="170" width="80" height="20" as="geometry"/>
                </mxCell>
                <mxCell id="create_to_db" value="" style="endArrow=classic;html=1;rounded=0;exitX=0.5;exitY=0;exitDx=0;exitDy=0;entryX=0.5;entryY=0;entryDx=0;entryDy=0;" parent="1" source="process21" edge="1">
                    <mxGeometry width="50" height="50" relative="1" as="geometry">
                        <mxPoint x="390" y="400" as="sourcePoint"/>
                        <mxPoint x="760" y="590" as="targetPoint"/>
                        <Array as="points">
                            <mxPoint x="250" y="80"/>
                            <mxPoint x="760" y="80"/>
                        </Array>
                    </mxGeometry>
                </mxCell>
                <mxCell id="create_to_db_label" value="&lt;font style=&quot;font-size: 12px;&quot;&gt;Orders ID&lt;/font&gt;" style="text;html=1;strokeColor=none;fillColor=none;align=center;verticalAlign=middle;whiteSpace=wrap;rounded=0;fontSize=9;" parent="1" vertex="1">
                    <mxGeometry x="670" y="130" width="50" height="20" as="geometry"/>
                </mxCell>
                <mxCell id="update_to_db" value="" style="endArrow=classic;html=1;rounded=0;exitX=0.5;exitY=1;exitDx=0;exitDy=0;entryX=-0.003;entryY=0.346;entryDx=0;entryDy=0;entryPerimeter=0;" parent="1" source="process23" target="db1" edge="1">
                    <mxGeometry width="50" height="50" relative="1" as="geometry">
                        <mxPoint x="390" y="400" as="sourcePoint"/>
                        <mxPoint x="440" y="350" as="targetPoint"/>
                        <Array as="points">
                            <mxPoint x="250" y="600"/>
                        </Array>
                    </mxGeometry>
                </mxCell>
                <mxCell id="update_to_db_label" value="Order cancelation" style="text;html=1;strokeColor=none;fillColor=none;align=center;verticalAlign=middle;whiteSpace=wrap;rounded=0;fontSize=9;" parent="1" vertex="1">
                    <mxGeometry x="650" y="260" width="50" height="20" as="geometry"/>
                </mxCell>
                <mxCell id="cancel_to_db" value="" style="endArrow=classic;html=1;rounded=0;exitX=1;exitY=0.75;exitDx=0;exitDy=0;" parent="1" source="process24" edge="1">
                    <mxGeometry width="50" height="50" relative="1" as="geometry">
                        <mxPoint x="390" y="400" as="sourcePoint"/>
                        <mxPoint x="690" y="590" as="targetPoint"/>
                        <Array as="points">
                            <mxPoint x="690" y="310"/>
                        </Array>
                    </mxGeometry>
                </mxCell>
                <mxCell id="cancel_to_db_label" value="Orders Cancelation &amp;amp; others info&amp;nbsp;" style="text;html=1;strokeColor=none;fillColor=none;align=center;verticalAlign=middle;whiteSpace=wrap;rounded=0;fontSize=9;" parent="1" vertex="1">
                    <mxGeometry x="620" y="330" width="50" height="20" as="geometry"/>
                </mxCell>
                <mxCell id="db_to_view" value="" style="endArrow=classic;html=1;rounded=0;entryX=1;entryY=0.75;entryDx=0;entryDy=0;exitX=0.35;exitY=0.019;exitDx=0;exitDy=0;exitPerimeter=0;" parent="1" target="process22" edge="1">
                    <mxGeometry width="50" height="50" relative="1" as="geometry">
                        <mxPoint x="742.0000000000002" y="590.38" as="sourcePoint"/>
                        <mxPoint x="440" y="80" as="targetPoint"/>
                        <Array as="points">
                            <mxPoint x="740" y="160"/>
                            <mxPoint x="500" y="160"/>
                        </Array>
                    </mxGeometry>
                </mxCell>
                <mxCell id="db_to_view_label" value="&lt;font style=&quot;font-size: 13px;&quot;&gt;Orders Details&lt;/font&gt;" style="text;html=1;strokeColor=none;fillColor=none;align=center;verticalAlign=middle;whiteSpace=wrap;rounded=0;fontSize=9;" parent="1" vertex="1">
                    <mxGeometry x="670" y="50" width="50" height="20" as="geometry"/>
                </mxCell>
                <mxCell id="db_to_update" value="" style="endArrow=classic;html=1;rounded=0;entryX=0.803;entryY=0.994;entryDx=0;entryDy=0;entryPerimeter=0;exitX=0.329;exitY=-0.037;exitDx=0;exitDy=0;exitPerimeter=0;" parent="1" source="db1" target="process23" edge="1">
                    <mxGeometry width="50" height="50" relative="1" as="geometry">
                        <mxPoint x="680" y="580" as="sourcePoint"/>
                        <mxPoint x="440" y="350" as="targetPoint"/>
                        <Array as="points">
                            <mxPoint x="680" y="580"/>
                            <mxPoint x="280" y="580"/>
                        </Array>
                    </mxGeometry>
                </mxCell>
                <mxCell id="db_to_update_label" value="&lt;font style=&quot;font-size: 12px;&quot;&gt;Updated Details &amp;amp; others infor&lt;/font&gt;" style="text;html=1;strokeColor=none;fillColor=none;align=center;verticalAlign=middle;whiteSpace=wrap;rounded=0;fontSize=9;" parent="1" vertex="1">
                    <mxGeometry x="560" y="530" width="50" height="20" as="geometry"/>
                </mxCell>
                <mxCell id="db_to_cancel" value="" style="endArrow=classic;html=1;rounded=0;entryX=1;entryY=0.5;entryDx=0;entryDy=0;exitX=0.158;exitY=-0.017;exitDx=0;exitDy=0;exitPerimeter=0;" parent="1" target="process24" edge="1">
                    <mxGeometry width="50" height="50" relative="1" as="geometry">
                        <mxPoint x="718.9600000000003" y="589.66" as="sourcePoint"/>
                        <mxPoint x="440" y="350" as="targetPoint"/>
                        <Array as="points">
                            <mxPoint x="720" y="290"/>
                        </Array>
                    </mxGeometry>
                </mxCell>
                <mxCell id="db_to_cancel_label" value="&lt;font style=&quot;font-size: 12px;&quot;&gt;Updated Order&lt;/font&gt;" style="text;html=1;strokeColor=none;fillColor=none;align=center;verticalAlign=middle;whiteSpace=wrap;rounded=0;fontSize=9;" parent="1" vertex="1">
                    <mxGeometry x="425" y="610" width="50" height="20" as="geometry"/>
                </mxCell>
                <mxCell id="6" value="" style="endArrow=none;html=1;exitX=1;exitY=0;exitDx=0;exitDy=0;" edge="1" parent="1" source="db1">
                    <mxGeometry width="50" height="50" relative="1" as="geometry">
                        <mxPoint x="710" y="630" as="sourcePoint"/>
                        <mxPoint x="820" y="590" as="targetPoint"/>
                    </mxGeometry>
                </mxCell>
                <mxCell id="7" value="&lt;span style=&quot;color: rgb(0, 0, 0); font-size: 10px; text-wrap-mode: wrap;&quot;&gt;Restaurant_Management&lt;/span&gt;" style="text;html=1;align=center;verticalAlign=middle;resizable=0;points=[];autosize=1;strokeColor=none;fillColor=none;" vertex="1" parent="1">
                    <mxGeometry x="690" y="595" width="140" height="30" as="geometry"/>
                </mxCell>
                <mxCell id="8" value="" style="endArrow=none;html=1;exitX=1;exitY=0;exitDx=0;exitDy=0;" edge="1" parent="1">
                    <mxGeometry width="50" height="50" relative="1" as="geometry">
                        <mxPoint x="700" y="630" as="sourcePoint"/>
                        <mxPoint x="820" y="630" as="targetPoint"/>
                    </mxGeometry>
                </mxCell>
            </root>
        </mxGraphModel>
    </diagram>
</mxfile>